/* XPM */
static char *a25pZ2h0X2lkbGVfYW5pbV9mMA__[] = {
/* columns rows colors chars-per-pixel */
"32 32 140 2 ",
"   c #020204",
".  c #050608",
"X  c #0C0B0D",
"o  c #0B0304",
"O  c #10080A",
"+  c #0D0D10",
"@  c #141416",
"#  c #1B1A1D",
"$  c #230B0C",
"%  c #2A0D0E",
"&  c #250E10",
"*  c #2B0F10",
"=  c #2B1314",
"-  c #241C1F",
";  c #321012",
":  c #381112",
">  c #331D1F",
",  c #1D1D20",
"<  c #231E21",
"1  c #212226",
"2  c #252529",
"3  c #272A2E",
"4  c #282B2F",
"5  c #3B2224",
"6  c #292D31",
"7  c #252C30",
"8  c #302F31",
"9  c #2E3032",
"0  c #333336",
"q  c #3A3B3D",
"w  c #561918",
"e  c #6A1F1F",
"r  c #661C1D",
"t  c #651F20",
"y  c #6B1F20",
"u  c #472629",
"i  c #40393A",
"p  c #6E2425",
"a  c #742222",
"s  c #7C2424",
"d  c #782F33",
"f  c #7C3335",
"g  c #65493B",
"h  c #3D3C40",
"j  c #3E4248",
"k  c #424243",
"l  c #42444A",
"z  c #4C474D",
"x  c #4E4C52",
"c  c #524D53",
"v  c #545057",
"b  c #575259",
"n  c #58545B",
"m  c #6A4E54",
"M  c #6C5157",
"N  c #6F545A",
"B  c #7B575D",
"V  c #5F6A70",
"C  c #636269",
"Z  c #6E6E6F",
"A  c #68656C",
"S  c #6C6B72",
"D  c #706D75",
"F  c #727179",
"G  c #832626",
"H  c #882727",
"J  c #8A2829",
"K  c #9F2E2E",
"L  c #962B2B",
"P  c #923030",
"I  c #AE3333",
"U  c #B23333",
"Y  c #B35B2D",
"T  c #C56B3F",
"R  c #9F3D40",
"E  c #A03D40",
"W  c #9C4A4D",
"Q  c #954E4F",
"!  c #9D5558",
"~  c #A64243",
"^  c #AE4E41",
"/  c #BF6253",
"(  c #915E64",
")  c #8B686F",
"_  c #906D6E",
"`  c #99776F",
"'  c #8D6A71",
"]  c #916D72",
"[  c #9B7870",
"{  c #BC7475",
"}  c #C36455",
"|  c #C66566",
" . c #7C7780",
".. c #737C84",
"X. c #787981",
"o. c #827C85",
"O. c #917A82",
"+. c #76848C",
"@. c #7A848D",
"#. c #84828B",
"$. c #89858E",
"%. c #808E97",
"&. c #8B8C96",
"*. c #8B8F99",
"=. c #8B939C",
"-. c #8F9293",
";. c #92949A",
":. c #949596",
">. c #AA9197",
",. c #9397A1",
"<. c #9698A1",
"1. c #9C9DA5",
"2. c #95A2AC",
"3. c #97A6B0",
"4. c #98A6B1",
"5. c #9AA9B3",
"6. c #9BAEB8",
"7. c #9EB1BB",
"8. c #BAA3A4",
"9. c #A2B4BE",
"0. c #A8B4BC",
"q. c #B2B6B8",
"w. c #C5A7A3",
"e. c #AEBEC6",
"r. c #B6C4CC",
"t. c #B9C7CF",
"y. c #BBC9D1",
"u. c #C4C3C4",
"i. c #C5C8C8",
"p. c #CFD3D8",
"a. c #D3D3D3",
"s. c #EED7D7",
"d. c #F5D6D6",
"f. c #D5DDE1",
"g. c #E7DFE0",
"h. c #EAEFF1",
"j. c #EDF1F3",
"k. c #F3F5F5",
"l. c #F2F7F9",
"z. c None",
/* pixels */
"z.z.z.z.z.z.z.z.z.z.. . . . .   z.z.z.z.z.z.z.z.z.z.z.z.z.z.z.z.",
"z.z.z.z.z.z.z.z.z.z.. O $ = = * z.z.z.z.z.z.z.z.z.z.z.z.z.z.z.z.",
"z.z.z.z.z.z.z.z.z.z.. & t J H e & . z.z.z.z.z.z.z.z.z.z.z.z.z.z.",
"z.z.z.z.z.z.z.z.z.z.. * y P ~ f =   z.z.z.z.z.z.z.z.z.z.z.z.z.z.",
"z.z.z.z.z.z.z.z.z.z.z.z.$ u ( N <               z.z.z.z.z.z.z.z.",
"z.z.z.z.z.z.z.z.z.z.z.z., h A D k 4 6 6 4 4 6 3 z.z.z.z.z.z.z.z.",
"z.z.z.z.z.z.z.z.z.z.  , x A F #.@.+.+.+.+.+.+.V 3   z.z.z.z.z.z.",
"z.z.z.z.z.z.z.z.z.z.# h F *.&.=.5.6.6.7.7.7.9.+.6   z.z.z.z.z.z.",
"z.z.z.z.z.z.z.z.  < x F =.2.2.2.5.6.6.6.6.9.7.+.6   z.z.z.z.z.z.",
"z.z.z.z.z.z.z.z.  2 A ,.3.9.e.r.r.t.t.t.r.r.y.=.9   z.z.z.z.z.z.",
"z.z.z.z.z.z.z.z.  4 ..5.6.e.f.j.h.j.l.l.j.k.l.q.h   z.z.z.z.z.z.",
"z.z.z.z.z.z.z.z.  6 +.9.6.r.h.k.a.r.w.u.u.i.i.-.0   z.z.z.z.z.z.",
"z.z.z.z.z.z.z.z.  6 +.6.6.r.j.a.Z q q q k k k 8 @   z.z.z.z.z.z.",
"z.z.z.z.z.z.z.z.  4 ..5.6.r.j.a.Z q h 6 + + 9 0 @ . z.z.z.z.z.z.",
"z.z.z.z.z.z.z.z.  2 S ,.5.r.h.l.a.u.i.-.6 6 :.:.0   z.z.z.z.z.z.",
"z.z.z.z.z.z.z.z.  # z D =.0.p.s.s.d.d.w.g g w.8.i   z.z.z.z.z.z.",
"z.z.z.z.z.z.z.z.  X # h F ;.1.>.{ { | / Y Y } Q < . z.z.z.z.z.z.",
"z.z.z.z.z.z.z.z..     < M ] ] ( Q I R Y T } Y d =   z.z.z.z.z.z.",
"z.z.z.z.z.z.z.z.z.z.  = f ~ E W ( ) ) ) ` [ ' m <   z.z.z.z.z.z.",
"z.z.z.z.z.z.z.z.z.z.X = f ~ ~ ! O.*.*.&.&.*.&.S 2 . z.z.z.z.z.z.",
"z.z.z.z.z.z.z.z.U s & < M ] ] O.,.5.5.5.5.5.5...6   z.z.z.z.z.z.",
"z.z.z.z.z.z.z.z.U H * 1 C #.#.#.+.+.+.+.+.@.2...6   z.z.z.z.z.z.",
"z.z.z.z.z.z.I U I G * 1 C $.$.S h 7 7 7 7 l X.D 2   z.z.z.z.z.z.",
"z.z.z.z.z.z.I I U H * 1 A o.D c 5 & o X , 0 n c <   z.z.z.z.z.z.",
"z.z.z.z.z.z.I U U G % 1 A D h 5 p r $ # x n 0 # + z.z.z.z.z.z.z.",
"z.z.z.z.z.z.L K K a $ , x c , % s s $ # c v <   z.z.z.z.z.z.z.z.",
"z.z.z.z.z.z.z.w w ; O X , , X z.z.: O X , 1 + z.z.z.z.z.z.z.z.z.",
"z.z.z.z.z.z.z.z.z.z.. . .   z.z.z.z.. .     z.z.z.z.z.z.z.z.z.z.",
"z.z.z.z.z.z.z.z.z.z.z.    z.z.z.z.z.z.    z.z.z.z.z.z.z.z.z.z.z.",
"z.z.z.z.z.z.z.z.z.z.z.z.z.z.z.z.z.z.z.z.z.z.z.z.z.z.z.z.z.z.z.z.",
"z.z.z.z.z.z.z.z.z.z.z.z.z.z.z.z.z.z.z.z.z.z.z.z.z.z.z.z.z.z.z.z.",
"z.z.z.z.z.z.z.z.z.z.z.z.z.z.z.z.z.z.z.z.z.z.z.z.z.z.z.z.z.z.z.z."
};
