/* XPM */
static char *b8753454b3db44e8df828ae6aa128284gq3t1CCZ8MvyGtfr[] = {
/* columns rows colors chars-per-pixel */
"32 32 129 2 ",
"   c None",
".  c black",
"X  c #0A150B",
"o  c #0A160B",
"O  c #0A160C",
"+  c #0B170C",
"@  c #0B180C",
"#  c #0B180D",
"$  c #0B190D",
"%  c #0C190D",
"&  c #0C1A0E",
"*  c #0C1B0E",
"=  c #0D1C0F",
"-  c #0D1D0F",
";  c #0E1F10",
":  c #0F2011",
">  c #0F2111",
",  c #162F19",
"<  c #163019",
"1  c #17321B",
"2  c #17331B",
"3  c #19371D",
"4  c #1A3A1F",
"5  c #1D4022",
"6  c #1E4122",
"7  c #1E4223",
"8  c #1E4323",
"9  c #26532C",
"0  c #26542C",
"q  c #26552D",
"w  c #27562E",
"e  c #29592F",
"r  c #295A2F",
"t  c #2A5C31",
"y  c #2B5D31",
"u  c #2B5E32",
"i  c #2B5F32",
"p  c #2C6033",
"a  c #2C6133",
"s  c #2D6133",
"d  c #2D6134",
"f  c #2D6334",
"g  c #2E6636",
"h  c #2F6636",
"j  c #2E6736",
"k  c #2F6736",
"l  c #336E3A",
"z  c #326F3A",
"x  c #336F3B",
"c  c #33703B",
"v  c #34703B",
"b  c #36753E",
"n  c #36763E",
"m  c #37763F",
"M  c #36773F",
"N  c #37773F",
"B  c #37783F",
"V  c #377840",
"C  c #377940",
"Z  c #377A40",
"A  c #387840",
"S  c #387940",
"D  c #387A40",
"F  c #387B40",
"G  c #387A41",
"H  c #397A41",
"J  c #387B41",
"K  c #397B41",
"L  c #387C41",
"P  c #397C41",
"I  c #397C42",
"U  c #397D42",
"Y  c #3A7D42",
"T  c #3A7D43",
"R  c #397E42",
"E  c #397F43",
"W  c #3A7E43",
"Q  c #3A7F43",
"!  c #3A8043",
"~  c #3A8144",
"^  c #3B8144",
"/  c #3B8345",
"(  c #3C8445",
")  c #3C8545",
"_  c #3C8446",
"`  c #3C8546",
"'  c #3D8546",
"]  c #3C8646",
"[  c #3D8646",
"{  c #3D8647",
"}  c #3D8747",
"|  c #3D8847",
" . c #3E8847",
".. c #3F8348",
"X. c #3E8848",
"o. c #3E8948",
"O. c #3E8A48",
"+. c #3E8A49",
"@. c #3F8A49",
"#. c #3E8B49",
"$. c #3F8B49",
"%. c #3F8C49",
"&. c #3F8C4A",
"*. c #408C4A",
"=. c #408D4A",
"-. c #408C4B",
";. c #408E4B",
":. c #438A4C",
">. c #428C4C",
",. c #44914E",
"<. c #45914F",
"1. c #44924F",
"2. c #45924F",
"3. c #459350",
"4. c #469250",
"5. c #479552",
"6. c #489552",
"7. c #4E9E59",
"8. c #4F9E59",
"9. c #519F5B",
"0. c #53A45D",
"q. c #53A45E",
"w. c #54A55E",
"e. c #59AA64",
"r. c #5BAD65",
"t. c #5BAE66",
"y. c #5DB168",
"u. c #5EB168",
"i. c #62B86D",
/* pixels */
"                                                                ",
"                                                                ",
"                                                                ",
"                                                                ",
"                                                                ",
"                                                                ",
"                    . . . . . . . . . . . .                     ",
"                    @ ; ; : : ; : : : ; = @                     ",
"            . . . + 8 t p k k k k k k d t 6 + . . .             ",
"            @ @ @ < p Q $.*.&.&.&.*.*.| Q p , + @ @             ",
"        . @ 6 0 9 i M } $.$.$.$.&.&.$.$.} M i 9 q 6 + .         ",
"        X < p B V L / $.} $.} $.| | $.| $./ Q B J p < +         ",
"    . X 6 i B } / } | $.| $.$.} $.| $.| } } } } } J i 6 X .     ",
"    X < d E } $.<.5.6.<.*.| } $.| $.| $.$.} $.| $.} E p < X     ",
". + 6 p V } } <.0.t.t.0.<.| $.} $.} $.} } $.$.} } $.} V p 6 + . ",
". = e Q } &.<.7.y.i.y.0.<.| | $.} $.} $.$.| $.$.$.$.$.} ! e = . ",
". ; d $.$.<.w.u.i.u.9.4.*.} *.} $.} $.} } *.*.*.*.*.&.$.| k = . ",
". ; k &.$.<.w.r.e.9.*.( } } ( *.( } ( } *.Y l f k l ! &.*.k : . ",
". : k $.$.*.<.4.:...Y J J Y Y Y J J J J Y h 3 ; = 4 c *.&.k : . ",
". : k *.} ( } Y V M N v p e e p x M A A B e % . . = f &.*.k : . ",
". : k $.( J J N M N N p 2 % % 2 d J N H B e % . . % t } &.k : . ",
". ; d _ H N m N N J J e % . . % e J H A H s 2 % % < p Q | f : . ",
". = e L J N N N N A J e % . . % e J N N N v s e t d c V Q e = . ",
". @ 6 i x N N N N A J i 2 % % 3 i J A N N N B H B J B l i 6 @ . ",
"    X , i M M M N N N x p e e s x N N N N M J V M M V i , X     ",
"    . + 6 q 9 e x A B J H H B Y J N J A J A V l t q q 8 + .     ",
"        @ @ @ < i A J J Y Q B H J B N J J J J i , @ @ @         ",
"        . . . + 7 9 e e e e e e e e e e e e q 8 X . . .         ",
"                % % ; ; = = = = = ; % = = = % @                 ",
"                . . . . . . . . . . . . . . . .                 ",
"                                                                ",
"                                                                "
};
