/* XPM */
static char *d52a081dedd24b5f82e4a114840d5e54bCesQZPP2DqG7hSS[] = {
/* columns rows colors chars-per-pixel */
"32 32 115 2 ",
"   c None",
".  c #0A0B0B",
"X  c #141515",
"o  c #171718",
"O  c #171818",
"+  c #1A1919",
"@  c #241E1D",
"#  c #25201F",
"$  c #1F1F20",
"%  c #2A2322",
"&  c #2E2827",
"*  c #2D2B2B",
"=  c #322625",
"-  c #352827",
";  c #3D2B29",
":  c #2F2F30",
">  c #2F3030",
",  c #343434",
"<  c #383332",
"1  c #3A3A3A",
"2  c #402E2D",
"3  c #44302E",
"4  c #453230",
"5  c #4D3432",
"6  c #423A39",
"7  c #4C3E3D",
"8  c #523734",
"9  c #533936",
"0  c #573C39",
"q  c #5C3D3A",
"w  c #623E3A",
"e  c #5D403D",
"r  c #65423D",
"t  c #6B433F",
"y  c #454444",
"u  c #564341",
"i  c #5A4543",
"p  c #5C4946",
"a  c #514F4F",
"s  c #5E4A49",
"d  c #515050",
"f  c #5B5C5C",
"g  c #664541",
"h  c #6C4541",
"j  c #604846",
"k  c #6E4945",
"l  c #604C4A",
"z  c #6B4E4B",
"x  c #704743",
"c  c #714844",
"v  c #6B514E",
"b  c #72534F",
"n  c #645654",
"m  c #6E5451",
"M  c #735652",
"N  c #765956",
"B  c #785956",
"V  c #7B5D5A",
"C  c #78615E",
"Z  c #656161",
"A  c #6B6666",
"S  c #6C6867",
"D  c #676868",
"F  c #6D6D6D",
"G  c #716766",
"H  c #7A6663",
"J  c #726867",
"K  c #7E6967",
"L  c #756B6B",
"P  c #7A6F6E",
"I  c #7A6C6A",
"U  c #6F6F70",
"Y  c gray44",
"T  c #717272",
"R  c #777271",
"E  c #747575",
"W  c #7B7170",
"Q  c #787373",
"!  c #7C7574",
"~  c #7D7877",
"^  c #7F7978",
"/  c #807372",
"(  c #807978",
")  c #817978",
"_  c #807979",
"`  c #807A79",
"'  c #817A79",
"]  c #837A79",
"[  c #817B7A",
"{  c #827A7A",
"}  c #837A7A",
"|  c #837B7A",
" . c #847B7B",
".. c #817C7B",
"X. c #847C7B",
"o. c #857C7B",
"O. c #817C7C",
"+. c #857C7C",
"@. c #867D7C",
"#. c #867F7E",
"$. c #8B7D7B",
"%. c #8C7C7A",
"&. c #8C7E7C",
"*. c #8D7E7C",
"=. c #7F8080",
"-. c #868787",
";. c #8A8181",
":. c #8B8281",
">. c #8E8381",
",. c #8F8382",
"<. c #908583",
"1. c #918584",
"2. c #918A89",
"3. c #958D8C",
"4. c #9B9392",
/* pixels */
"                    X X X + X o X X X X                         ",
"                    , , , , , , , 1 1 1                         ",
"                X : f Y Y F U F F E ^ U , X                     ",
"                : y S [ [ [ #. .#.:.3...d ,                     ",
"            X * f S n j z N N B N N N H O.F , X                 ",
"            > y A L i 9 q w h c x t w v *.O.d ,                 ",
"        X , f S n i q q w g h c x h r g M H ^ F 1 X             ",
"        X , T [ s 5 q r r h h c c h h r q N 4.-.1 X             ",
"        X 1 T ^ i 5 q t h h c c c k k t w N 4.-.1 X             ",
"        X * f A n i q w h h h h h h t k M H [ D , +             ",
"        + $ * y S L i 9 q r r w r r w m $.[ a * + +             ",
"        + + + , Z L n s z m m m m v N K ,.! 6 @ + +             ",
"        + @ = 4 u n L ! [ [ ) ) ~ #.2.>.K v 0 2 # +             ",
"        O % 7 i 5 i L #. .[ [ [  .:.3.$.v r M s & O             ",
"        X > Z J i 9 z B B M M M N B V M r b &.Q , X             ",
"        X , Z L n j k h x t w w t x x c M K <.Q 1 X             ",
"        + % 7 n L K b t x t r r t x t B *.<.K p & O             ",
"        + $ ; i J W C N N N v m M B b / ,.$.b 5 # O             ",
"        + $ 2 9 i n P  . . .( [ ] ] ] / C v g 5 % O             ",
"        X # ; 8 9 j I o.o.( [ [ ] ] / / z r r 8 % +             ",
"        X % ; 9 w k M N N N v M B B B b g r r 8 % O             ",
"        X @ - 5 w h h c c h r r t x c h r w 0 3 # X             ",
"          X + = 4 q h c k t r r t x x h h 0 - @ X               ",
"            X @ - 5 r c k h g r h c x t 0 3 # X                 ",
"              X + - 0 t t r r g r g h q ; @ X                   ",
"                X @ 3 0 8 8 8 8 8 8 8 3 @ X                     ",
"                  X % % % % % % % % % @ X                       ",
"                    X X X X X X X X X X                         ",
"                      . . . . . . . .                           ",
"                                                                ",
"                                                                ",
"                                                                "
};
